<?xml version="1.0" encoding="UTF-8"?>
<!-- Generator: visioncortex VTracer 0.6.12 -->
<svg version="1.1" xmlns="http://www.w3.org/2000/svg" width="312" height="330">
<path d="M0 0 C3.881786 2.312758 6.643668 5.111614 9.722656 8.382812 C13.346025 12.20536 16.56226 15.237661 21.160156 17.882812 C22.933594 19.679688 22.933594 19.679688 24.535156 21.632812 C33.218156 31.911812 33.218156 31.911812 37.160156 33.882812 C37.160156 34.542812 37.160156 35.202813 37.160156 35.882812 C37.742813 36.136758 38.325469 36.390703 38.925781 36.652344 C41.402037 38.016016 42.965363 39.525065 44.910156 41.570312 C48.138309 44.888302 51.468483 47.967507 55.007812 50.949219 C58.183146 53.801832 61.161543 56.846355 64.160156 59.882812 C64.164829 59.444128 64.164829 59.444128 64.188477 57.224121 C64.232672 53.947138 64.294363 50.671431 64.367676 47.39502 C64.39578 45.981078 64.417047 44.566982 64.431152 43.152832 C64.452731 41.111509 64.499447 39.072017 64.550781 37.03125 C64.571729 35.805835 64.592676 34.58042 64.614258 33.317871 C65.266721 29.212255 66.472768 27.035949 69.160156 23.882812 C71.362549 22.870361 71.362549 22.870361 73.742188 22.527344 C74.620845 22.399243 75.499502 22.271143 76.404785 22.13916 C80.896923 21.721231 85.337013 21.55391 89.847656 21.570312 C90.745488 21.554199 91.64332 21.538086 92.568359 21.521484 C98.187146 21.517368 102.277105 22.005636 107.160156 24.882812 C110.349794 28.986077 110.520395 32.183922 110.481445 37.300049 C110.480393 38.0292 110.479341 38.758351 110.478256 39.509598 C110.474659 41.087036 110.464538 42.664469 110.448586 44.241831 C110.425512 46.744059 110.424473 49.245407 110.429871 51.747726 C110.442519 58.859792 110.425643 65.971389 110.369629 73.083252 C110.336868 77.440065 110.338274 81.795792 110.360649 86.152655 C110.362391 87.806777 110.351219 89.460969 110.326546 91.114908 C110.114725 105.662142 110.114725 105.662142 114.483398 110.760498 C116.302917 112.427292 116.302917 112.427292 118.160156 113.882812 C119.369683 114.943953 120.578164 116.00629 121.785156 117.070312 C122.44 117.629766 123.094844 118.189219 123.769531 118.765625 C126.942437 121.575617 130.000601 124.487101 133.035156 127.445312 C133.607017 127.987605 134.178877 128.529897 134.768066 129.088623 C135.307378 129.62012 135.846689 130.151616 136.402344 130.699219 C136.885581 131.167874 137.368818 131.636528 137.866699 132.119385 C141.106449 136.53628 141.411675 141.437911 141.420853 146.752075 C141.424678 147.418587 141.428504 148.0851 141.432445 148.771809 C141.442715 150.991835 141.438795 153.211598 141.434814 155.431641 C141.439164 157.028684 141.444348 158.625725 141.450302 160.222763 C141.463673 164.551209 141.464273 168.879567 141.461739 173.208029 C141.460668 176.823924 141.465555 180.439802 141.470344 184.055693 C141.481432 192.586133 141.48188 201.116529 141.47583 209.646973 C141.469787 218.443665 141.482112 227.240198 141.5034 236.036864 C141.521017 243.594564 141.527017 251.152212 141.523762 258.709932 C141.52195 263.221628 141.524583 267.733211 141.538477 272.244888 C141.551052 276.48684 141.549114 280.728543 141.536066 284.970491 C141.5337 286.525707 141.536435 288.080941 141.544689 289.636137 C141.555158 291.76223 141.547056 293.887487 141.534378 296.01355 C141.534462 296.607897 141.534462 296.607897 141.534886 299.615654 C140.962215 304.608598 139.315316 307.840351 135.597656 311.195312 C131.7498 313.859213 129.665608 314.016084 124.985596 314.043945 C123.686971 314.053553 122.388346 314.06316 121.050369 314.073059 C119.624727 314.077908 118.199083 314.082187 116.773438 314.085938 C115.313329 314.091691 113.853221 314.097448 112.393112 314.10321 C109.327257 314.113724 106.261428 314.119564 103.195557 314.123047 C99.279366 314.128517 95.363527 314.15251 91.447446 314.181019 C88.428431 314.19971 85.4095 314.204854 82.390432 314.206383 C80.947625 314.209398 79.504818 314.217388 78.062067 314.230568 C63.877756 314.350839 63.877756 314.350839 58.160156 310.882812 C56.785156 308.882812 56.785156 308.882812 56.160156 306.882812 C55.830156 305.892812 55.500156 304.902812 55.160156 303.882812 C55.085477 302.4155 55.068224 300.944876 55.087006 299.475784 C55.095747 298.574493 55.104489 297.673202 55.113495 296.744598 C55.128087 295.758073 55.14268 294.771547 55.157715 293.755127 C55.180719 291.597357 55.203612 289.439586 55.22641 287.281815 C55.240261 286.135781 55.254112 284.989747 55.268383 283.808985 C55.336811 277.745857 55.372833 271.682503 55.414062 265.619141 C55.468011 257.900477 55.531705 250.18231 55.633301 242.464111 C55.714518 236.2296 55.761379 229.995655 55.785358 223.760672 C55.800781 221.38637 55.828785 219.012116 55.869701 216.638117 C55.925373 213.310546 55.937113 209.985447 55.938965 206.657471 C55.965703 205.681066 55.992441 204.704662 56.019989 203.698669 C55.963212 197.342985 54.518871 194.123735 50.045496 189.592761 C47.468711 187.255691 44.877629 184.944047 42.226562 182.691406 C37.754556 178.777344 33.677526 174.436928 29.515625 170.199219 C24.012406 164.635635 18.362319 159.351146 12.160156 154.570312 C11.500156 154.013438 10.840156 153.456562 10.160156 152.882812 C10.160156 152.222813 10.160156 151.562813 10.160156 150.882812 C9.589102 150.646914 9.018047 150.411016 8.429688 150.167969 C4.819049 148.12339 2.411791 144.953318 -0.328125 141.878906 C-3.579124 139.295297 -5.716607 139.061916 -9.839844 138.882812 C-12.382568 140.206787 -12.382568 140.206787 -14.804688 142.347656 C-15.746831 143.17894 -16.688975 144.010225 -17.659668 144.866699 C-24.080095 150.883989 -30.244032 157.162275 -36.402344 163.445312 C-39.085437 166.18148 -41.775053 168.910994 -44.46875 171.636719 C-45.080133 172.264699 -45.691516 172.892679 -46.321426 173.539688 C-47.790027 175.025462 -49.310368 176.459781 -50.839844 177.882812 C-51.499844 177.882812 -52.159844 177.882812 -52.839844 177.882812 C-52.839844 178.542812 -52.839844 179.202812 -52.839844 179.882812 C-54.273437 181.328125 -54.273437 181.328125 -56.277344 183.007812 C-56.999219 183.622695 -57.721094 184.237578 -58.464844 184.871094 C-59.248594 185.534961 -60.032344 186.198828 -60.839844 186.882812 C-62.490763 188.314469 -64.136715 189.751875 -65.777344 191.195312 C-66.528867 191.851445 -67.280391 192.507578 -68.054688 193.183594 C-69.839844 194.882813 -69.839844 194.882813 -70.839844 196.882812 C-70.126539 196.886458 -69.413234 196.890104 -68.678314 196.89386 C-61.939923 196.931804 -55.201987 196.988728 -48.463934 197.066715 C-45.000189 197.106142 -41.536696 197.138354 -38.072754 197.153809 C-34.085934 197.171918 -30.099814 197.221891 -26.113281 197.273438 C-24.87557 197.274666 -23.637858 197.275895 -22.36264 197.277161 C-15.93682 197.386321 -11.680428 197.459323 -6.839844 201.882812 C-2.305812 206.885882 -2.687363 212.213159 -2.678711 218.687012 C-2.673746 219.575287 -2.668781 220.463561 -2.663666 221.378754 C-2.64907 224.31501 -2.642247 227.251213 -2.636719 230.1875 C-2.630966 232.230072 -2.625208 234.272644 -2.619446 236.315216 C-2.608944 240.597354 -2.603096 244.879472 -2.599609 249.161621 C-2.594123 254.64497 -2.570087 260.128071 -2.541637 265.611341 C-2.523003 269.830421 -2.517805 274.049441 -2.516273 278.268559 C-2.513249 280.289942 -2.505227 282.311325 -2.492088 284.332668 C-2.47501 287.161912 -2.476912 289.99055 -2.483398 292.819824 C-2.474184 293.652236 -2.464969 294.484648 -2.455475 295.342285 C-2.495661 300.945878 -3.420966 305.230866 -7.339844 309.527344 C-11.74315 312.95596 -14.588829 314.005977 -20.095535 314.023254 C-21.184828 314.028965 -22.274121 314.034675 -23.396423 314.040558 C-23.994115 314.041117 -23.994115 314.041117 -27.018799 314.043945 C-27.648181 314.046428 -27.648181 314.046428 -30.833237 314.05899 C-34.287897 314.072106 -37.742537 314.078558 -41.197218 314.083001 C-43.356317 314.085933 -45.51541 314.090038 -47.674505 314.094505 C-54.432001 314.108178 -61.189484 314.117846 -67.946993 314.121707 C-75.743439 314.126187 -83.53971 314.143731 -91.336102 314.172708 C-97.365085 314.194336 -103.394018 314.204412 -109.42304 314.205748 C-113.022658 314.206796 -116.622112 314.212686 -120.221689 314.230568 C-124.238802 314.250136 -128.255549 314.245755 -132.272705 314.239258 C-133.462016 314.248473 -134.651328 314.257687 -135.876678 314.267181 C-146.01632 314.215741 -146.01632 314.215741 -150.839844 310.882812 C-155.611067 305.853685 -155.96314 302.105532 -155.980286 295.343445 C-155.983257 294.68822 -155.986228 294.032995 -155.989289 293.357914 C-155.997955 291.164052 -155.999483 288.970245 -156.000977 286.776367 C-156.005606 285.202569 -156.010631 283.628773 -156.016022 282.054977 C-156.029134 277.780021 -156.035588 273.505079 -156.040032 269.230105 C-156.042965 266.557904 -156.04707 263.885708 -156.051537 261.213509 C-156.065209 252.848865 -156.074877 244.484231 -156.078738 236.119577 C-156.083218 226.471269 -156.10076 216.823103 -156.129739 207.174838 C-156.151373 199.712271 -156.161444 192.249743 -156.16278 184.787145 C-156.163826 180.332353 -156.169709 175.877694 -156.187599 171.422935 C-156.20411 167.230264 -156.206221 163.037825 -156.19746 158.845133 C-156.196691 157.310104 -156.201012 155.775062 -156.210918 154.240065 C-156.316665 136.827554 -156.316665 136.827554 -150.546875 130.28125 C-149.653555 129.489766 -148.760234 128.698281 -147.839844 127.882812 C-146.815867 126.861184 -145.7993 125.832092 -144.789062 124.796875 C-139.650913 119.608666 -134.537935 114.49306 -128.953125 109.78125 C-125.432354 106.618413 -122.155483 103.202404 -118.874756 99.792725 C-117.565924 98.453132 -116.206547 97.163308 -114.839844 95.882812 C-114.179844 95.882812 -113.519844 95.882812 -112.839844 95.882812 C-112.633594 95.325937 -112.427344 94.769063 -112.214844 94.195312 C-110.691427 91.633202 -108.85757 90.18948 -106.539062 88.359375 C-104.641272 86.710261 -103.085612 84.928998 -101.464844 83.007812 C-98.502629 79.527865 -95.334937 76.549872 -91.832031 73.621094 C-88.448687 70.66896 -85.365262 67.42241 -82.234375 64.207031 C-81.382305 63.336914 -80.530234 62.466797 -79.652344 61.570312 C-78.792539 60.687305 -77.932734 59.804297 -77.046875 58.894531 C-74.839844 56.882812 -74.839844 56.882812 -72.839844 56.882812 C-72.509844 55.892812 -72.179844 54.902813 -71.839844 53.882812 C-70.167969 52.269531 -70.167969 52.269531 -68.089844 50.570312 C-65.463723 48.361557 -63.185032 46.22501 -61.089844 43.507812 C-58.839844 40.882812 -58.839844 40.882812 -56.527344 40.007812 C-55.970469 39.966563 -55.413594 39.925312 -54.839844 39.882812 C-54.839844 39.222813 -54.839844 38.562812 -54.839844 37.882812 C-53.582031 36.648437 -53.582031 36.648437 -51.714844 35.132812 C-47.530784 31.589018 -43.688099 27.781245 -39.839844 23.882812 C-35.570959 19.567747 -31.283565 15.380838 -26.636719 11.46875 C-24.546959 9.62431 -22.64515 7.642943 -20.714844 5.632812 C-14.60574 -0.500062 -8.322515 -3.274057 0 0 Z " fill="#18281B" transform="translate(163.83984375,9.1171875)"/>
<path d="M0 0 C0.33 0 0.66 0 1 0 C1.27409 5.779649 1.472485 11.55544 1.604248 17.340088 C1.659217 19.302673 1.734026 21.264815 1.829834 23.22583 C2.646205 40.378359 2.646205 40.378359 -1.427246 45.810059 C-3.991738 48.629834 -6.779829 50.946253 -10 53 C-10.66 53 -11.32 53 -12 53 C-12 53.66 -12 54.32 -12 55 C-12.973403 55.567429 -13.946807 56.134858 -14.949707 56.719482 C-17.407128 58.709247 -17.955367 59.773124 -18.575134 62.923492 C-18.792134 66.783933 -18.831993 70.623951 -18.804688 74.488281 C-18.815943 75.916054 -18.829826 77.343808 -18.846222 78.77153 C-18.882221 82.518345 -18.882639 86.264343 -18.875549 90.011292 C-18.874636 93.839056 -18.907506 97.666516 -18.9375 101.494141 C-18.991325 108.996202 -19.007549 116.497723 -19 124 C-18.391885 124.277068 -17.78377 124.554136 -17.157227 124.8396 C-14.660957 126.182376 -13.039116 127.958401 -11.141846 130.037842 C-4.194662 137.647938 -4.194662 137.647938 0.6875 138.1875 C1.780625 138.125625 2.87375 138.06375 4 138 C3.34 139.32 2.68 140.64 2 142 C2.713305 142.003646 3.426609 142.007291 4.16153 142.011047 C10.899921 142.048991 17.637857 142.105916 24.37591 142.183903 C27.839655 142.22333 31.303148 142.255541 34.76709 142.270996 C38.753909 142.289106 42.74003 142.339078 46.726562 142.390625 C47.964274 142.391854 49.201985 142.393082 50.477203 142.394348 C56.903024 142.503509 61.159416 142.576511 66 147 C70.534032 152.003069 70.152481 157.330346 70.161133 163.804199 C70.166098 164.692474 70.171063 165.580749 70.176178 166.495941 C70.190774 169.432198 70.197597 172.368401 70.203125 175.304688 C70.208878 177.34726 70.214636 179.389832 70.220398 181.432404 C70.2309 185.714541 70.236748 189.99666 70.240234 194.278809 C70.245721 199.762157 70.269757 205.245258 70.298206 210.728529 C70.316841 214.947609 70.322039 219.166629 70.32357 223.385746 C70.326595 225.40713 70.334617 227.428512 70.347755 229.449856 C70.364834 232.279099 70.362931 235.107737 70.356445 237.937012 C70.361053 238.353218 70.361053 238.353218 70.384369 240.459473 C70.344183 246.063066 69.418878 250.348053 65.5 254.644531 C61.096693 258.073148 58.251014 259.123165 52.744308 259.140442 C51.655015 259.146152 50.565722 259.151862 49.44342 259.157745 C48.845728 259.158304 48.845728 259.158304 45.821045 259.161133 C45.191663 259.163615 45.191663 259.163615 42.006607 259.176178 C38.551947 259.189294 35.097307 259.195745 31.642626 259.200189 C29.483527 259.203121 27.324434 259.207226 25.165339 259.211693 C18.407843 259.225366 11.650359 259.235033 4.892851 259.238895 C-2.903595 259.243374 -10.699866 259.260919 -18.496259 259.289895 C-24.525241 259.311524 -30.554175 259.3216 -36.583196 259.322936 C-40.182814 259.323983 -43.782268 259.329873 -47.381845 259.347755 C-51.398959 259.367324 -55.415706 259.362942 -59.432861 259.356445 C-60.622173 259.36566 -61.811484 259.374875 -63.036835 259.384369 C-73.176477 259.332928 -73.176477 259.332928 -78 256 C-82.771224 250.970872 -83.123296 247.222719 -83.140442 240.460632 C-83.143413 239.805407 -83.146384 239.150182 -83.149445 238.475102 C-83.158111 236.28124 -83.159639 234.087432 -83.161133 231.893555 C-83.165762 230.319757 -83.170787 228.74596 -83.176178 227.172165 C-83.18929 222.897208 -83.195745 218.622267 -83.200189 214.347293 C-83.203121 211.675092 -83.207227 209.002895 -83.211693 206.330696 C-83.225365 197.966052 -83.235033 189.601419 -83.238895 181.236765 C-83.243374 171.588457 -83.260917 161.94029 -83.289895 152.292025 C-83.311529 144.829458 -83.3216 137.366931 -83.322936 129.904332 C-83.323983 125.44954 -83.329865 120.994882 -83.347755 116.540123 C-83.364266 112.347451 -83.366377 108.155013 -83.357616 103.96232 C-83.356848 102.427291 -83.361168 100.892249 -83.371075 99.357252 C-83.476822 81.944741 -83.476822 81.944741 -77.707031 75.398438 C-76.813711 74.606953 -75.920391 73.815469 -75 73 C-73.976024 71.978371 -72.959456 70.949279 -71.949219 69.914062 C-66.811069 64.725853 -61.698091 59.610247 -56.113281 54.898438 C-52.59251 51.735601 -49.315639 48.319591 -46.034912 44.909912 C-44.726081 43.57032 -43.366703 42.280496 -42 41 C-41.34 41 -40.68 41 -40 41 C-39.79375 40.443125 -39.5875 39.88625 -39.375 39.3125 C-37.851583 36.750389 -36.017726 35.306668 -33.699219 33.476562 C-31.801428 31.827448 -30.245768 30.046185 -28.625 28.125 C-25.662785 24.645053 -22.495093 21.667059 -18.992188 18.738281 C-15.608843 15.786148 -12.525419 12.539598 -9.394531 9.324219 C-8.542461 8.454102 -7.690391 7.583984 -6.8125 6.6875 C-6.382598 6.245996 -6.382598 6.245996 -4.207031 4.011719 C-2 2 -2 2 0 2 C0 1.34 0 0.68 0 0 Z " fill="#1A291C" transform="translate(91,64)"/>
<path d="M0 0 C1.002246 -0.016113 2.004492 -0.032227 3.037109 -0.048828 C8.918865 -0.0527 13.347987 0.242741 18.4375 3.3125 C21.622478 7.420581 21.797756 10.611238 21.758789 15.729736 C21.757737 16.458887 21.756684 17.188039 21.7556 17.939285 C21.752003 19.516723 21.741881 21.094157 21.725929 22.671518 C21.702856 25.173747 21.701817 27.675094 21.707214 30.177414 C21.719863 37.289479 21.702987 44.401076 21.646973 51.512939 C21.614212 55.869752 21.615618 60.22548 21.637993 64.582342 C21.639735 66.236465 21.628562 67.890656 21.603889 69.544596 C21.392069 84.091829 21.392069 84.091829 25.760742 89.190186 C27.580261 90.856979 27.580261 90.856979 29.4375 92.3125 C30.646789 93.373912 31.85524 94.43628 33.0625 95.5 C33.716055 96.054297 34.369609 96.608594 35.042969 97.179688 C38.266409 100.050811 41.320098 103.07635 44.375 106.125 C44.955239 106.700808 45.535479 107.276616 46.133301 107.869873 C49.749216 111.498139 51.538026 113.295285 51.638504 118.389267 C51.657221 119.242777 51.675937 120.096288 51.695221 120.975662 C51.710478 121.914316 51.725735 122.85297 51.741455 123.820068 C51.760877 124.807309 51.780298 125.79455 51.800308 126.811707 C51.969241 135.938819 52.065833 145.067109 52.141377 154.195426 C52.192736 160.326807 52.267133 166.455932 52.397705 172.586182 C52.523495 178.515042 52.589778 184.441868 52.614965 190.371981 C52.634542 192.626741 52.674876 194.881425 52.736826 197.13542 C53.223561 215.714189 53.223561 215.714189 48.807251 221.090805 C45.973209 223.928461 42.788339 226.114522 39.4375 228.3125 C38.23143 229.434352 37.053219 230.588464 35.929688 231.792969 C35.066016 232.686289 34.202344 233.579609 33.3125 234.5 C32.423047 235.42168 31.533594 236.343359 30.617188 237.292969 C28.4375 239.3125 28.4375 239.3125 26.4375 239.3125 C26.259635 233.014103 26.137272 226.716355 26.052979 220.416016 C26.017832 218.274168 25.970103 216.132487 25.909424 213.991211 C25.82425 210.907783 25.784754 207.826579 25.753906 204.742188 C25.717777 203.788835 25.681648 202.835483 25.644424 201.853241 C25.640558 195.267654 25.640558 195.267654 28.012238 192.42514 C29.926514 190.825195 29.926514 190.825195 31.846359 189.515442 C33.4375 188.3125 33.4375 188.3125 34.296875 185.679688 C34.007439 179.084675 34.007439 179.084675 31.5 175.6875 C27.386841 173.840776 23.875632 173.466352 19.4375 174.3125 C16.935892 176.188706 15.818043 177.551413 14.4375 180.3125 C14.033324 183.276454 13.873678 185.401549 15.484375 188.003906 C17.281132 190.197007 18.879412 192.033456 21.4375 193.3125 C21.743919 200.497249 21.952768 207.680293 22.09668 214.870117 C22.156714 217.310862 22.238375 219.75118 22.342773 222.19043 C23.250508 243.958266 23.250508 243.958266 18.756836 249.038086 C17.161213 250.518557 15.508554 251.844428 13.782959 253.1698 C10.664736 255.670644 9.062427 257.500741 8.356445 261.385742 C7.905687 265.950681 8.024584 270.485428 8.1875 275.0625 C8.199505 276.645801 8.206051 278.229154 8.207031 279.8125 C8.22108 283.649324 8.308445 287.477892 8.4375 291.3125 C3.8175 291.3125 -0.8025 291.3125 -5.5625 291.3125 C-5.557263 289.726671 -5.552026 288.140842 -5.546631 286.506958 C-5.502474 271.557627 -5.499818 256.608939 -5.539154 241.659615 C-5.558316 233.974063 -5.562649 226.289043 -5.531738 218.603516 C-5.504825 211.902581 -5.506076 205.202336 -5.540759 198.501426 C-5.558142 194.954992 -5.561683 191.409793 -5.531464 187.863419 C-5.498207 183.898589 -5.527847 179.935548 -5.5625 175.970703 C-5.543089 174.802571 -5.523677 173.634438 -5.503677 172.430908 C-5.609937 166.475101 -6.132404 163.038858 -10.376602 158.683212 C-12.956371 156.437964 -15.661773 154.566333 -18.536865 152.7229 C-21.005055 150.62929 -21.516112 149.569669 -22.09964 146.334686 C-22.213177 143.160138 -22.197677 140.025863 -22.059893 136.852537 C-21.971139 134.709455 -21.933295 132.570771 -21.909286 130.426041 C-21.83375 124.335591 -21.681798 118.248848 -21.463623 112.161865 C-20.592896 86.641452 -20.592896 86.641452 -23.966553 80.939423 C-26.273067 78.472832 -28.751876 76.608877 -31.535934 74.714661 C-34.315101 72.727548 -36.202339 71.377053 -37.321442 68.069244 C-38.301419 61.723652 -37.848011 55.378416 -37.4375 49 C-37.367128 47.084214 -37.303275 45.168178 -37.246094 43.251953 C-37.093233 38.599165 -36.852666 33.958663 -36.5625 29.3125 C-32.6884 30.110735 -31.055846 31.494487 -28.3125 34.375 C-27.959297 34.741738 -27.959297 34.741738 -26.171875 36.597656 C-25.640781 37.163555 -25.109688 37.729453 -24.5625 38.3125 C-24.553154 37.435132 -24.543809 36.557764 -24.53418 35.653809 C-24.489984 32.376826 -24.428293 29.101119 -24.35498 25.824707 C-24.326876 24.410766 -24.305609 22.99667 -24.291504 21.58252 C-24.269925 19.541196 -24.223209 17.501704 -24.171875 15.460938 C-24.161401 14.84823 -24.161401 14.84823 -24.108398 11.747559 C-23.460222 7.668916 -22.181957 5.478764 -19.5625 2.3125 C-13.19833 -0.133089 -6.755851 -0.021807 0 0 Z " fill="#18281C" transform="translate(252.5625,30.6875)"/>
<path d="M0 0 C3.918666 1.886163 6.703616 3.341167 9.4375 6.75 C17.937302 16.968651 17.937302 16.968651 22 19 C22 19.66 22 20.32 22 21 C22.578789 21.251367 23.157578 21.502734 23.753906 21.761719 C26.282837 23.155929 27.934305 24.737904 29.9375 26.8125 C30.282324 27.166348 30.282324 27.166348 32.027344 28.957031 C32.67832 29.631211 33.329297 30.305391 34 31 C34.997605 32.002389 35.997147 33.002861 37 34 C37.66 34.66 38.32 35.32 39 36 C38.34 36 37.68 36 37 36 C36.794675 41.602615 36.68497 47.196661 36.658203 52.802979 C36.63633 54.703178 36.589732 56.603279 36.516602 58.502197 C35.923635 74.584299 35.923635 74.584299 39.433746 78.66806 C41.25814 80.125735 43.129799 81.457388 45.058594 82.773438 C49.159936 85.723312 51.607479 88.169557 52.690918 93.221954 C53.026292 97.243256 53.123843 101.183089 53.058594 105.214844 C53.048301 105.921969 53.038009 106.629095 53.027405 107.357649 C52.912306 113.311191 52.624555 119.254871 52.32251 125.201355 C52.101485 129.646004 51.944666 134.084316 51.869799 138.533907 C51.810319 140.592643 51.661508 142.631112 51.507187 144.684555 C51.419984 148.923226 51.580399 151.989877 53 156 C55.269751 158.333175 57.880551 160.177852 60.48291 162.123779 C65.656296 166.209916 68.359439 169.519478 69.336136 176.160202 C69.874553 183.194293 69.741066 190.222074 69.520909 197.266439 C69.426177 200.816029 69.418255 204.365875 69.400528 207.916534 C69.354178 214.618559 69.231488 221.316848 69.080286 228.017239 C68.911747 235.65413 68.829937 243.291214 68.754854 250.929506 C68.598687 266.621883 68.332343 282.31031 68 298 C72.62 298 77.24 298 82 298 C81.937158 297.032881 81.874316 296.065762 81.80957 295.069336 C81.589709 291.425225 81.453718 287.781672 81.34082 284.132812 C81.281054 282.564748 81.19959 280.997336 81.094727 279.431641 C80.399164 268.766351 80.399164 268.766351 82 264 C83.982593 261.894623 85.715967 260.2958 87.96875 258.5625 C92.500555 254.94001 94.345773 252.034939 95.081055 246.204102 C95.549115 239.217557 95.409112 232.245284 95.25 225.25 C95.23801 222.7995 95.23145 220.348967 95.230469 217.898438 C95.216348 211.930472 95.134826 205.966395 95 200 C94.386406 199.716406 93.772812 199.432813 93.140625 199.140625 C90.184044 197.56522 88.793076 195.817691 87 193 C86.305832 188.921762 86.821824 187.314778 88.875 183.6875 C90.991017 181.011361 91.669926 180.18621 94.953125 179.726562 C98.957591 179.549494 102.166894 179.573444 105.5625 181.875 C108.489347 185.627368 108.740564 187.776009 108.894531 192.402344 C107.845555 195.448497 107.07643 195.744848 104.500488 197.510498 C102.270197 199.376386 101.157025 200.460057 100.338974 203.272995 C100.095792 206.011721 100.056548 208.680444 100.097656 211.429688 C100.085365 212.42002 100.073073 213.410352 100.06041 214.430695 C100.028732 217.579555 100.044942 220.726068 100.0625 223.875 C100.049388 226.015647 100.033147 228.156277 100.013672 230.296875 C99.972863 235.531599 99.971315 240.76522 100 246 C101.261207 244.906735 102.520923 243.811749 103.780029 242.716064 C104.481697 242.106484 105.183365 241.496903 105.906296 240.868851 C109.006174 238.101884 111.910356 235.15899 114.8125 232.1875 C120.599515 226.26699 120.599515 226.26699 124 224 C124.384761 222.207785 124.384761 222.207785 124.398727 220.001068 C124.411266 219.165318 124.423804 218.329567 124.436722 217.468491 C124.435287 216.549958 124.433852 215.631425 124.432373 214.685059 C124.442565 213.719163 124.452756 212.753268 124.463257 211.758102 C124.493532 208.554823 124.502675 205.351842 124.511719 202.148438 C124.528555 199.931681 124.546703 197.714935 124.566116 195.498199 C124.61374 189.655507 124.643469 183.812854 124.669556 177.970032 C124.699299 172.011193 124.74585 166.052488 124.791016 160.09375 C124.87719 148.395903 124.944472 136.698029 125 125 C125.33 125 125.66 125 126 125 C126.070081 146.148912 126.122984 167.297805 126.155437 188.44681 C126.170905 198.266663 126.191995 208.086443 126.226318 217.90625 C126.25622 226.4652 126.275575 235.024097 126.282265 243.583097 C126.286176 248.115025 126.295368 252.646804 126.31719 257.178684 C126.337568 261.445151 126.343831 265.711407 126.339323 269.977919 C126.340148 271.542816 126.346106 273.10772 126.357616 274.672575 C126.372581 276.812095 126.36894 278.950823 126.360764 281.090363 C126.363529 282.28685 126.366294 283.483337 126.369143 284.716082 C125.806535 289.721077 124.163027 292.950439 120.4375 296.3125 C116.544569 299.007606 114.452704 299.122534 109.714355 299.113525 C109.070328 299.113671 108.4263 299.113817 107.762756 299.113968 C105.630866 299.11327 103.499063 299.105486 101.367188 299.097656 C99.89031 299.095791 98.413432 299.094368 96.936554 299.093369 C93.046878 299.089548 89.157239 299.079722 85.267578 299.068665 C81.299484 299.058441 77.331384 299.053869 73.363281 299.048828 C65.575504 299.038099 57.787757 299.021028 50 299 C50 298.67 50 298.34 50 298 C53.96 298 57.92 298 62 298 C62 256.42 62 214.84 62 172 C61.34 171.67 61.34 171.67 58 170 C56.112305 168.323486 56.112305 168.323486 54.171875 166.332031 C53.453867 165.603066 52.735859 164.874102 51.996094 164.123047 C51.254883 163.360566 50.513672 162.598086 49.75 161.8125 C44.902791 156.849061 40.018825 152.051904 34.754883 147.530029 C31.830243 144.980124 29.168363 142.188928 26.46875 139.40625 C24.434997 137.423984 22.368557 135.570439 20.21875 133.71875 C15.221443 129.382783 10.630052 124.68142 6 119.960938 C0.682035 114.580653 -4.687498 109.208335 -11 105 C-11.433125 105.474375 -11.86625 105.94875 -12.3125 106.4375 C-15.768084 109.637114 -20.023167 109.390673 -24.488281 109.351562 C-28.629471 108.771925 -30.212076 107.066717 -33 104 C-35.551675 100.520443 -35.42884 97.216925 -35 93 C-33.707254 89.694834 -32.21511 86.769315 -29.136719 84.820312 C-24.543518 83.056927 -19.678885 83.291137 -15.1875 85.1875 C-12.627936 87.308282 -10.774045 89.17467 -9 92 C-8.75 95.3125 -8.75 95.3125 -9 98 C-8.43249 98.240813 -7.86498 98.481626 -7.280273 98.729736 C-4.539994 100.256254 -2.709607 102.08201 -0.515625 104.324219 C0.337734 105.188535 1.191094 106.052852 2.070312 106.943359 C2.954609 107.848926 3.838906 108.754492 4.75 109.6875 C10.054614 115.098364 15.348174 120.402096 21.105957 125.330811 C24.416187 128.248062 27.476374 131.411878 30.5625 134.5625 C35.197176 139.293431 39.914949 143.75264 45 148 C47.076454 125.880441 47.076454 125.880441 42.785156 120.378906 C40.190399 118.0842 37.644001 116.12252 34.758301 114.230469 C31.643699 112.050853 28.989284 109.374225 26.25 106.75 C22.843728 103.582013 19.410859 100.46102 15.875 97.4375 C12.466642 94.488942 9.256332 91.364382 6.0625 88.1875 C5.577007 87.706599 5.091514 87.225698 4.591309 86.730225 C0.735941 82.857664 -0.113402 81.095567 -0.12442 75.610794 C-0.122623 75.235684 -0.122623 75.235684 -0.113525 73.337402 C-0.113671 72.547071 -0.113817 71.75674 -0.113968 70.942459 C-0.11327 68.323591 -0.105482 65.704793 -0.097656 63.085938 C-0.095792 61.272756 -0.094368 59.459575 -0.093369 57.646393 C-0.089546 52.868964 -0.079719 48.091565 -0.068665 43.314148 C-0.058444 38.441207 -0.05387 33.568261 -0.048828 28.695312 C-0.038096 19.130195 -0.021023 9.5651 0 0 Z " fill="#9B906F" transform="translate(179,24)"/>
<path d="M0 0 C0.162473 10.813847 0.286712 21.627402 0.362685 32.442223 C0.399156 37.464526 0.448594 42.485991 0.528076 47.507812 C0.604356 52.357856 0.646036 57.207096 0.664141 62.057693 C0.677036 63.904492 0.702217 65.751248 0.74011 67.597702 C1.06095 83.885263 1.06095 83.885263 -3.276367 88.936279 C-5.199722 90.631073 -5.199722 90.631073 -7 92 C-7.756277 92.768684 -8.512554 93.537368 -9.291748 94.329346 C-9.941838 94.938669 -10.591929 95.547993 -11.261719 96.175781 C-11.988105 96.85834 -12.714492 97.540898 -13.462891 98.244141 C-13.829951 98.58542 -13.829951 98.58542 -15.6875 100.3125 C-16.433223 101.014395 -17.178945 101.716289 -17.947266 102.439453 C-23.528875 107.662565 -23.528875 107.662565 -26.203369 109.578125 C-28 111 -28 111 -28.609375 113.261719 C-28.632578 113.661973 -28.632578 113.661973 -28.75 115.6875 C-28.806719 116.495742 -28.863438 117.303984 -28.921875 118.136719 C-28.947656 118.751602 -28.973438 119.366484 -29 120 C-28.2575 120.20625 -27.515 120.4125 -26.75 120.625 C-23.063538 122.468231 -21.861282 124.346373 -20 128 C-19.349375 133.204999 -20.089628 136.634442 -23 141 C-26.878029 144.427095 -29.967385 145.673955 -35.042969 145.382812 C-38.427485 144.720771 -40.444804 143.25808 -43 141 C-45.910372 136.634442 -46.650625 133.204999 -46 128 C-43.928758 124.153408 -41.810612 121.212613 -38 119 C-37.01 119 -36.02 119 -35 119 C-35.060419 116.936702 -35.149316 114.874226 -35.25 112.8125 C-35.296406 111.663945 -35.342813 110.515391 -35.390625 109.332031 C-36.093578 105.488322 -37.39353 103.843882 -40 101 C-41.569356 97.861288 -41.352011 95.461442 -41 92 C-38.679409 89.215291 -36.296596 87.210965 -33.348145 85.11377 C-29.709675 80.288958 -30.436667 75.678747 -30.617188 69.804688 C-30.631377 68.620291 -30.645567 67.435894 -30.660187 66.215607 C-30.708007 62.434594 -30.788985 58.655322 -30.875 54.875 C-30.950372 51.08768 -31.018398 47.300713 -31.06839 43.51297 C-31.100479 41.156646 -31.147793 38.800471 -31.211639 36.444794 C-31.228004 35.380038 -31.24437 34.315283 -31.26123 33.218262 C-31.282973 32.2807 -31.304716 31.343139 -31.327118 30.377167 C-31 28 -31 28 -29.608673 26.173859 C-28 25 -28 25 -26 25 C-26 24.34 -26 23.68 -26 23 C-24.742188 21.765625 -24.742188 21.765625 -22.875 20.25 C-17.906589 16.048704 -13.387724 11.442598 -8.837402 6.799805 C-8.255552 6.209736 -7.673701 5.619668 -7.074219 5.011719 C-6.554324 4.480222 -6.034429 3.948726 -5.498779 3.401123 C-1.860603 0 -1.860603 0 0 0 Z " fill="#968A69" transform="translate(135,24)"/>
<path d="M0 0 C3.048974 1.46371 5.262881 2.973227 7.722656 5.308594 C8.427129 5.974395 9.131602 6.640195 9.857422 7.326172 C10.585098 8.02291 11.312773 8.719648 12.0625 9.4375 C12.763105 10.099434 13.463711 10.761367 14.185547 11.443359 C15.669514 12.852256 17.128596 14.287692 18.565674 15.744385 C21 18 21 18 23.987061 19.909912 C28.762748 23.390524 31.481142 26.200583 32.560272 32.022858 C33.389192 41.243281 32.992651 50.447792 32.6875 59.6875 C32.460625 69.360625 32.23375 79.03375 32 89 C67.97 89 103.94 89 141 89 C141 89.33 141 89.66 141 90 C124.153751 90.070112 107.307548 90.122999 90.461187 90.155437 C82.638952 90.170899 74.816806 90.191976 66.994629 90.226318 C60.176024 90.25624 53.357484 90.27558 46.538815 90.282265 C42.929077 90.286173 39.319528 90.295343 35.70985 90.31719 C31.678064 90.341394 27.646604 90.341968 23.614746 90.340576 C22.420722 90.351362 21.226697 90.362148 19.99649 90.37326 C9.817751 90.335172 9.817751 90.335172 5 87 C-0.011445 81.717666 -0.148888 77.418222 -0.113525 70.385742 C-0.113671 69.62438 -0.113817 68.863017 -0.113968 68.078583 C-0.113273 65.567984 -0.105498 63.05746 -0.097656 60.546875 C-0.095791 58.803813 -0.094367 57.060751 -0.093369 55.317688 C-0.089554 50.734279 -0.079733 46.150901 -0.068665 41.567505 C-0.058428 36.888758 -0.053866 32.210005 -0.048828 27.53125 C-0.038109 18.354153 -0.021046 9.177079 0 0 Z " fill="#1E2E21" transform="translate(8,233)"/>
<path d="M0 0 C3.062819 1.735598 5.400971 3.801942 7 7 C7.420704 10.059118 7.480771 12.946311 7 16 C4.562466 19.096326 2.265493 20.823005 -1 23 C-1.279481 26.101476 -1.371475 29.000337 -1.328125 32.101562 C-1.326252 33.011993 -1.324379 33.922424 -1.322449 34.860443 C-1.315716 36.792253 -1.301776 38.724049 -1.28125 40.655762 C-1.250345 43.592253 -1.240303 46.528206 -1.234375 49.464844 C-1.225194 51.343756 -1.214815 53.222664 -1.203125 55.101562 C-1.198875 55.972697 -1.194625 56.843831 -1.190247 57.741364 C-1.162334 60.163792 -1.098153 62.579449 -1 65 C-0.98513 65.366733 -0.98513 65.366733 -0.909882 67.222626 C-0.528602 72.106719 0.643778 74.500109 4.148438 77.867188 C4.568672 78.278398 4.568672 78.278398 6.695312 80.359375 C7.137461 80.774453 7.137461 80.774453 9.375 82.875 C9.813281 83.30168 9.813281 83.30168 12.03125 85.460938 C18.348453 91.565636 18.348453 91.565636 22 94 C22 94.66 22 95.32 22 96 C22.53625 96.20625 23.0725 96.4125 23.625 96.625 C27.063146 98.615506 29.816548 100.679859 32 104 C32.876264 107.76772 32.838372 111.449332 32.804688 115.304688 C32.818394 116.383804 32.8321 117.462921 32.846222 118.574738 C32.883499 122.008583 32.879808 125.440981 32.875 128.875 C32.893128 131.208356 32.913931 133.541693 32.9375 135.875 C32.98933 141.583475 33.007563 147.291311 33 153 C35.968927 153.989642 38.011499 154.152737 41.114014 154.205322 C42.154866 154.225267 43.195719 154.245213 44.268112 154.265762 C45.390065 154.282475 46.512018 154.299187 47.667969 154.316406 C48.242943 154.326797 48.242943 154.326797 51.152664 154.379379 C54.830881 154.444833 58.50917 154.503741 62.1875 154.5625 C64.679044 154.605689 67.170581 154.649304 69.662109 154.693359 C75.774663 154.800511 81.887289 154.902285 88 155 C88.127617 154.23043 88.255234 153.460859 88.386719 152.667969 C89.313886 148.634495 91.486423 146.096038 94.8125 143.6875 C99.228284 142.299682 102.882443 142.583655 107.1875 144.1875 C110.468835 146.302138 112.127266 147.542645 114 151 C114.729075 155.463031 115.072816 159.891221 112.976562 164.011719 C110.305493 167.354603 107.981 168.7264 103.765625 169.308594 C98.817856 169.562128 95.761871 169.385213 91.875 166.125 C90.179687 164.507812 90.179687 164.507812 89 163 C89 162.34 89 161.68 89 161 C88.324279 161.008882 87.648559 161.017765 86.952362 161.026917 C79.912012 161.115491 72.871821 161.175777 65.831055 161.219727 C63.204362 161.239827 60.577713 161.267112 57.951172 161.301758 C54.173065 161.350342 50.39555 161.372985 46.617188 161.390625 C45.445097 161.41127 44.273007 161.431915 43.065399 161.453186 C36.784606 161.45491 32.656995 161.436068 28 157 C26.188476 154.036783 25.755598 151.853829 25.776367 148.402588 C25.775864 147.498074 25.77536 146.59356 25.774841 145.661636 C25.782112 144.691773 25.789384 143.721909 25.796875 142.722656 C25.786329 140.662103 25.774573 138.601556 25.761719 136.541016 C25.751394 133.29732 25.75005 130.05445 25.77002 126.810791 C25.784776 123.676535 25.762342 120.544283 25.734375 117.410156 C25.749743 116.442317 25.765111 115.474478 25.780945 114.47731 C25.684968 107.833474 25.684968 107.833474 23.615356 105.315155 C21.954102 103.974365 21.954102 103.974365 19 102 C19 101.34 19 100.68 19 100 C18.01 99.67 17.02 99.34 16 99 C14.675781 97.617188 14.675781 97.617188 13.3125 95.875 C9.464768 91.215712 4.987926 87.41227 0.296875 83.625 C-7.689436 77.171415 -7.689436 77.171415 -8.344421 72.591858 C-8.460272 69.515403 -8.448138 66.461057 -8.398438 63.382812 C-8.403174 61.061197 -8.408397 58.739582 -8.414062 56.417969 C-8.399325 52.768544 -8.374947 49.119501 -8.339844 45.470215 C-8.313144 41.940611 -8.322785 38.41246 -8.335938 34.882812 C-8.325116 34.340001 -8.325116 34.340001 -8.270355 31.593048 C-8.304426 26.349938 -8.474573 22.948595 -11.979004 18.882324 C-12.981597 17.916953 -13.987787 16.95528 -15 16 C-16.772348 12.455305 -16.023065 8.731935 -15 5 C-10.834297 -0.102986 -6.489139 -1.483232 0 0 Z " fill="#958765" transform="translate(32,144)"/>
<path d="M0 0 C4.308501 0.840015 6.098154 2.819553 9.125 6 C13.831063 10.915531 13.831063 10.915531 16 12 C16 12.66 16 13.32 16 14 C16.556875 14.226875 17.11375 14.45375 17.6875 14.6875 C20.933606 16.529885 22.701978 17.98697 25 21 C25.719103 24.821148 25.625908 28.591001 25.566406 32.46875 C25.572041 33.581815 25.577675 34.69488 25.583481 35.841675 C25.599937 39.394879 25.58438 42.946839 25.5625 46.5 C25.54591 50.053044 25.536803 53.605269 25.552231 57.158325 C25.561516 59.367556 25.552331 61.57696 25.522598 63.786011 C25.549253 71.264876 25.549253 71.264876 27.897705 75.094971 C28.591462 75.72363 29.28522 76.35229 30 77 C30.683203 77.643242 31.366406 78.286484 32.070312 78.949219 C32.748359 79.522852 33.426406 80.096484 34.125 80.6875 C39.96821 85.659741 39.96821 85.659741 40.227051 88.430176 C40.216577 89.425171 40.206104 90.420166 40.195312 91.445312 C40.188867 92.52168 40.182422 93.598047 40.175781 94.707031 C40.159023 95.834961 40.142266 96.962891 40.125 98.125 C40.115977 99.260664 40.106953 100.396328 40.097656 101.566406 C40.074031 104.377813 40.04109 107.188803 40 110 C39.67 109.835 39.67 109.835 38 109 C38 108.34 38 107.68 38 107 C37.468906 106.797617 36.937813 106.595234 36.390625 106.386719 C32.957814 104.395464 30.491056 101.655312 27.75 98.8125 C20.705971 91.627903 20.705971 91.627903 17 88.5 C16.439877 88.007311 15.879754 87.514622 15.302658 87.007004 C14.044171 85.910102 12.778063 84.820945 11.478769 83.772699 C-0.453264 74.047622 -0.453264 74.047622 -1.382947 66.012134 C-1.546471 62.319698 -1.437134 58.670645 -1.269531 54.980469 C-1.245219 53.384868 -1.226745 51.789169 -1.213791 50.193436 C-1.164654 46.036425 -1.03746 41.885526 -0.892639 37.730896 C-0.758523 33.474433 -0.700044 29.216961 -0.634766 24.958984 C-0.496238 16.636549 -0.275042 8.319039 0 0 Z " fill="#19281A" transform="translate(185,31)"/>
<path d="M0 0 C0.116086 7.588822 0.204812 15.177552 0.259061 22.767061 C0.285104 26.291642 0.320403 29.815614 0.377197 33.339844 C0.44215 37.395891 0.466224 41.451303 0.488281 45.507812 C0.514088 46.767398 0.539894 48.026983 0.566483 49.324738 C0.569607 59.092709 0.569607 59.092709 -2.405518 62.780762 C-6.426085 66.219828 -8.508094 66.119714 -13.757812 66.097656 C-14.089338 66.096949 -14.089338 66.096949 -15.767059 66.093369 C-17.886419 66.087768 -20.005673 66.075215 -22.125 66.0625 C-23.561196 66.057485 -24.997394 66.052922 -26.433594 66.048828 C-29.955763 66.037798 -33.477871 66.020533 -37 66 C-39.944115 36.713385 -39.944115 36.713385 -33.742188 28.804688 C-30.276856 25.330338 -26.399646 22.473874 -22.361328 19.700195 C-18.475183 16.902107 -15.123463 13.57268 -11.6875 10.25 C-10.485068 9.128066 -9.280774 8.008124 -8.074219 6.890625 C-6.220213 5.162685 -4.424656 3.416069 -2.644531 1.609375 C-1 0 -1 0 0 0 Z " fill="#16261A" transform="translate(304,256)"/>
<path d="M0 0 C0.33 0.99 0.66 1.98 1 3 C0.762812 3.216562 0.762812 3.216562 -0.4375 4.3125 C-3.915205 8.068421 -3.189595 12.958818 -3.240479 17.766602 C-3.253475 18.662878 -3.266471 19.559154 -3.279861 20.48259 C-3.406486 29.846436 -3.463298 39.211174 -3.514893 48.575684 C-3.541655 53.018571 -3.590414 57.460388 -3.658447 61.902832 C-3.740408 67.268614 -3.783078 72.633375 -3.797956 77.999748 C-3.810201 80.042751 -3.836226 82.08572 -3.876406 84.128365 C-4.175353 100.12587 -4.175353 100.12587 -1.296478 104.716309 C0.725143 106.496343 2.653694 107.699356 5 109 C6.294628 110.203809 7.559659 111.440887 8.78125 112.71875 C9.391782 113.337661 10.002314 113.956572 10.631348 114.594238 C11.248003 115.22314 11.864658 115.852041 12.5 116.5 C16.959613 121.008147 21.406926 125.450826 26.289062 129.507812 C28 131 28 131 30.138916 133.549072 C33.781616 136.669566 35.741755 136.6503 40.488281 136.707031 C40.839881 136.714592 40.839881 136.714592 42.619186 136.752853 C44.85062 136.795615 47.080698 136.804556 49.3125 136.8125 C50.831416 136.835654 52.3503 136.861021 53.869141 136.888672 C57.579401 136.951406 61.289211 136.983834 65 137 C65.277148 136.222695 65.554297 135.445391 65.839844 134.644531 C67.496488 130.868275 69.319344 129.806867 73 128 C77.286437 127.320811 80.804338 127.495165 84.8125 129.1875 C88.884916 132.561788 90.814642 134.540303 91.5 139.9375 C91.229061 145.065989 88.749755 148.250245 85.1875 151.8125 C82.055773 153.51258 79.556224 153.877372 76 154 C70.7517 152.215578 68.161103 149.36976 65 145 C65 144.34 65 143.68 65 143 C64.038118 143.062842 63.076235 143.125684 62.085205 143.19043 C31.33897 145.028484 31.33897 145.028484 24.364746 139.113037 C21.987995 136.539587 19.9976 133.884633 18 131 C16.594847 129.530865 15.160477 128.088625 13.6875 126.6875 C13.067461 126.057148 12.447422 125.426797 11.808594 124.777344 C10.016188 123.015909 8.161828 121.380332 6.25 119.75 C5.943535 119.474533 5.943535 119.474533 4.392639 118.080505 C2.653152 116.567944 0.844959 115.133313 -0.99884 113.749817 C-5.981563 109.749898 -10.000782 105.928334 -11.05603 99.409546 C-11.537491 93.91088 -11.352413 88.431114 -11.171875 82.921875 C-11.149454 80.898835 -11.132391 78.875729 -11.120422 76.8526 C-11.07491 71.563818 -10.957323 66.279081 -10.823975 60.991882 C-10.700538 55.582384 -10.646269 50.172223 -10.585938 44.761719 C-10.457786 34.172716 -10.253373 23.586696 -10 13 C-10.66 12.67 -11.32 12.34 -12 12 C-11.047928 10.994037 -10.088127 9.995384 -9.125 9 C-8.858164 8.721563 -8.858164 8.721563 -7.507812 7.3125 C-6 6 -6 6 -4 6 C-3.855625 5.690625 -3.855625 5.690625 -3.125 4.125 C-2 2 -2 2 0 0 Z " fill="#968967" transform="translate(55,99)"/>
<path d="M0 0 C0.33 0 0.66 0 1 0 C1.27409 5.779649 1.472485 11.55544 1.604248 17.340088 C1.659217 19.302673 1.734026 21.264815 1.829834 23.22583 C2.646205 40.378359 2.646205 40.378359 -1.427246 45.810059 C-3.991738 48.629834 -6.779829 50.946253 -10 53 C-10.66 53 -11.32 53 -12 53 C-12 53.66 -12 54.32 -12 55 C-12.973403 55.567429 -13.946807 56.134858 -14.949707 56.719482 C-17.407128 58.709247 -17.955367 59.773124 -18.575134 62.923492 C-18.792134 66.783933 -18.831993 70.623951 -18.804688 74.488281 C-18.815943 75.916054 -18.829826 77.343808 -18.846222 78.77153 C-18.882221 82.518345 -18.882639 86.264343 -18.875549 90.011292 C-18.874636 93.839056 -18.907506 97.666516 -18.9375 101.494141 C-18.991325 108.996202 -19.007549 116.497723 -19 124 C-18.695942 124.138534 -18.695942 124.138534 -17.157227 124.8396 C-14.660957 126.182376 -13.039116 127.958401 -11.141846 130.037842 C-4.194662 137.647938 -4.194662 137.647938 0.6875 138.1875 C1.780625 138.125625 2.87375 138.06375 4 138 C2.25 141.875 2.25 141.875 0 143 C-4.377921 143.510757 -6.298125 143.541832 -9.84375 140.804688 C-10.720313 139.837891 -11.596875 138.871094 -12.5 137.875 C-12.938281 137.399336 -12.938281 137.399336 -15.15625 134.992188 C-15.380838 134.742173 -15.380838 134.742173 -16.517386 133.476946 C-18 132 -18 132 -19.781022 130.738737 C-22.548682 128.768032 -24.638747 127.208792 -25.634581 123.876621 C-25.860843 121.303254 -25.86656 118.813395 -25.794678 116.230957 C-25.7957 115.264477 -25.796722 114.297998 -25.797775 113.302231 C-25.792913 110.119624 -25.738534 106.939916 -25.683594 103.757812 C-25.670533 101.546799 -25.660571 99.335766 -25.65358 97.124725 C-25.626894 91.314369 -25.558165 85.505244 -25.480652 79.695374 C-25.408955 73.763231 -25.377054 67.830889 -25.341797 61.898438 C-25.266796 50.265085 -25.147374 38.632645 -25 27 C-25.66 26.67 -26.32 26.34 -27 26 C-26.336133 25.40832 -25.672266 24.816641 -24.988281 24.207031 C-24.105273 23.416836 -23.222266 22.626641 -22.3125 21.8125 C-21.877441 21.423848 -21.877441 21.423848 -19.675781 19.457031 C-16.124407 16.195988 -12.757507 12.77795 -9.394531 9.324219 C-8.968496 8.88916 -8.968496 8.88916 -6.8125 6.6875 C-5.952695 5.804492 -5.092891 4.921484 -4.207031 4.011719 C-2 2 -2 2 0 2 C0 1.34 0 0.68 0 0 Z " fill="#A09472" transform="translate(91,64)"/>
<path d="M0 0 C0 25.08 0 50.16 0 76 C-0.66 76 -1.32 76 -2 76 C-2 76.66 -2 77.32 -2 78 C-3.363281 79.375 -3.363281 79.375 -5.3125 81 C-7.898027 83.171474 -10.37871 85.367107 -12.804688 87.71875 C-13.282527 88.178945 -13.760366 88.639141 -14.252686 89.113281 C-15.638635 90.452773 -17.01291 91.804311 -18.386719 93.15625 C-21 95 -21 95 -23.714844 94.894531 C-26.585642 93.770748 -27.594285 92.733335 -29 90 C-28.768113 87.064802 -28.054589 86.055639 -25.96875 83.929688 C-25.154062 83.251641 -24.339375 82.573594 -23.5 81.875 C-19.087193 78.174387 -19.087193 78.174387 -18 76 C-17.961695 74.173344 -17.989621 72.345149 -18.048584 70.519043 C-18.207832 64.74429 -18.306259 58.972186 -18.355712 53.195646 C-18.38976 49.705293 -18.451839 46.220216 -18.579346 42.731934 C-19.479301 17.11317 -19.479301 17.11317 -11.224136 8.170441 C-2.464869 0 -2.464869 0 0 0 Z " fill="#172416" transform="translate(129,31)"/>
<path d="M0 0 C3.657822 2.039939 5.669462 3.504193 8 7 C8.54386 15.565789 8.54386 15.565789 6 19 C2.571429 22 2.571429 22 0 22 C0 43.45 0 64.9 0 87 C-1.98 87 -3.96 87 -6 87 C-6 65.55 -6 44.1 -6 22 C-6.825 21.67 -6.825 21.67 -11 20 C-13.172634 18.12704 -13.885948 16.742732 -14.320312 13.914062 C-14.521403 9.878839 -14.351115 7.589371 -12.25 4.0625 C-8.27588 0.419556 -5.456086 -0.65473 0 0 Z " fill="#938665" transform="translate(261,136)"/>
<path d="M0 0 C3.345062 1.672531 5.108319 2.826482 7.722656 5.308594 C8.427129 5.974395 9.131602 6.640195 9.857422 7.326172 C10.585098 8.02291 11.312773 8.719648 12.0625 9.4375 C12.763105 10.099434 13.463711 10.761367 14.185547 11.443359 C15.669514 12.852256 17.128596 14.287692 18.565674 15.744385 C21 18 21 18 23.987061 19.909912 C28.762748 23.390524 31.481142 26.200583 32.560272 32.022858 C33.389192 41.243281 32.992651 50.447792 32.6875 59.6875 C32.460625 69.360625 32.23375 79.03375 32 89 C67.97 89 103.94 89 141 89 C141 89.33 141 89.66 141 90 C124.101927 90.046691 107.203874 90.081975 90.305751 90.103624 C82.459915 90.113943 74.61412 90.128015 66.768311 90.150879 C59.931057 90.170794 53.093832 90.183712 46.25655 90.188177 C42.635217 90.190788 39.013967 90.196936 35.39266 90.21146 C31.353126 90.22753 27.313736 90.227981 23.27417 90.227051 C22.06936 90.234241 20.86455 90.241432 19.62323 90.24884 C19.074248 90.247466 19.074248 90.247466 16.296066 90.240509 C15.340167 90.242353 14.384268 90.244196 13.399402 90.246096 C11 90 11 90 8 88 C13.94 88.33 19.88 88.66 26 89 C26.280012 81.192301 26.443931 73.393283 26.506592 65.580811 C26.533947 62.927379 26.610252 60.288709 26.709717 57.635498 C27.587725 33.285723 27.587725 33.285723 19.150375 24.194321 C16.267376 21.490444 13.306698 18.985699 10.14621 16.612518 C6.965833 14.222996 4.002138 11.608252 1 9 C0.67 9.99 0.34 10.98 0 12 C0 8.04 0 4.08 0 0 Z " fill="#A39A7D" transform="translate(8,233)"/>
<path d="M0 0 C3.195313 2.154979 4.328289 3.187938 5.6875 6.8125 C6.184606 12.122856 6.630664 17.16593 3.6875 21.8125 C-0.472465 25.465152 -3.745841 26.457056 -9.132812 26.203125 C-13.374234 25.443014 -16.122448 23.127821 -18.945312 20.007812 C-21.478249 15.94064 -21.033193 11.423601 -20.3125 6.8125 C-18.702371 3.573073 -16.375021 1.61855 -13.5 -0.5625 C-8.66622 -1.94358 -4.639598 -1.663252 0 0 Z " fill="#9D8E6B" transform="translate(98.3125,258.1875)"/>
<path d="M0 0 C0.124 4.323225 0.214523 8.645496 0.274658 12.969971 C0.299736 14.439555 0.333809 15.909016 0.377197 17.378174 C0.438155 19.495917 0.466273 21.612006 0.488281 23.730469 C0.514465 25.003015 0.540649 26.275562 0.567627 27.58667 C-0.147664 31.887955 -1.713002 33.245041 -5 36 C-5.643242 36.666445 -6.286484 37.332891 -6.949219 38.019531 C-7.522852 38.611211 -8.096484 39.202891 -8.6875 39.8125 C-9.268867 40.41707 -9.850234 41.021641 -10.449219 41.644531 C-12 43 -12 43 -14 43 C-14.123615 38.497742 -14.214341 33.996472 -14.274658 29.49292 C-14.299801 27.961169 -14.33392 26.429539 -14.377197 24.898193 C-14.437869 22.696151 -14.466209 20.495694 -14.488281 18.292969 C-14.514088 17.608492 -14.539894 16.924015 -14.566483 16.218796 C-14.567627 14.278076 -14.567627 14.278076 -14 11 C-11.607178 9.171875 -11.607178 9.171875 -9 8 C-7.541705 6.647716 -6.123151 5.251163 -4.75 3.8125 C-1.095495 0 -1.095495 0 0 0 Z " fill="#212A1A" transform="translate(86,72)"/>
<path d="M0 0 C3.5 -0.3125 3.5 -0.3125 7 0 C9 2 9 2 9.3125 5.5 C9.260937 6.0775 9.260937 6.0775 9 9 C6 11 6 11 2.375 10.6875 C-1 10 -1 10 -2 9 C-2.262931 4.968398 -2.294048 3.441073 0 0 Z " fill="#202610" transform="translate(87,265)"/>
<path d="M0 0 C2 1 2 1 2 1 Z " fill="#DFE1DC" transform="translate(160,150)"/>
<path d="M0 0 C2 1 2 1 2 1 Z " fill="#DFE4DE" transform="translate(156,148)"/>
<path d="" fill="#E0E2DF" transform="translate(0,0)"/>
<path d="" fill="#E9E6D7" transform="translate(0,0)"/>
<path d="" fill="#DEE4E0" transform="translate(0,0)"/>
<path d="" fill="#DDE4DD" transform="translate(0,0)"/>
<path d="" fill="#E1E1DF" transform="translate(0,0)"/>
<path d="" fill="#DEE3DD" transform="translate(0,0)"/>
<path d="" fill="#DEE3DD" transform="translate(0,0)"/>
<path d="" fill="#DBE1DD" transform="translate(0,0)"/>
<path d="" fill="#E1E3DE" transform="translate(0,0)"/>
<path d="" fill="#DBE5DD" transform="translate(0,0)"/>
<path d="" fill="#DAE1DA" transform="translate(0,0)"/>
<path d="" fill="#DBE2DB" transform="translate(0,0)"/>
<path d="" fill="#DDE4DD" transform="translate(0,0)"/>
<path d="" fill="#DDE2DC" transform="translate(0,0)"/>
<path d="" fill="#DFE6DF" transform="translate(0,0)"/>
<path d="" fill="#DEE4E0" transform="translate(0,0)"/>
<path d="" fill="#DEE5DE" transform="translate(0,0)"/>
<path d="" fill="#DBE2DB" transform="translate(0,0)"/>
<path d="" fill="#DEDFDA" transform="translate(0,0)"/>
<path d="" fill="#DFE1DC" transform="translate(0,0)"/>
<path d="" fill="#E0E5DF" transform="translate(0,0)"/>
<path d="" fill="#DBDDD8" transform="translate(0,0)"/>
<path d="" fill="#DAE1DA" transform="translate(0,0)"/>
<path d="" fill="#D5DCD4" transform="translate(0,0)"/>
<path d="" fill="#E3E2DE" transform="translate(0,0)"/>
<path d="" fill="#E2E3DE" transform="translate(0,0)"/>
<path d="" fill="#E3E4DC" transform="translate(0,0)"/>
<path d="" fill="#E1E2DC" transform="translate(0,0)"/>
<path d="" fill="#D9DED8" transform="translate(0,0)"/>
<path d="" fill="#DEE3DD" transform="translate(0,0)"/>
<path d="" fill="#E7E4D3" transform="translate(0,0)"/>
<path d="" fill="#E7E5D9" transform="translate(0,0)"/>
<path d="" fill="#E2E5DA" transform="translate(0,0)"/>
<path d="" fill="#E2E2E0" transform="translate(0,0)"/>
<path d="" fill="#DFE4DE" transform="translate(0,0)"/>
<path d="" fill="#E5E3D7" transform="translate(0,0)"/>
<path d="" fill="#DCE2DE" transform="translate(0,0)"/>
</svg>
